<?xml version="1.0" standalone="no"?>
<!DOCTYPE svg PUBLIC "-//W3C//DTD SVG 20010904//EN"
 "http://www.w3.org/TR/2001/REC-SVG-20010904/DTD/svg10.dtd">
<svg version="1.0" xmlns="http://www.w3.org/2000/svg"
 width="300.000000pt" height="292.000000pt" viewBox="0 0 300.000000 292.000000"
 preserveAspectRatio="xMidYMid meet">
<metadata>
Created by potrace 1.10, written by Peter Selinger 2001-2011
</metadata>
<g transform="translate(0.000000,292.000000) scale(0.100000,-0.100000)"
fill="#000000" stroke="none">
<path d="M813 2561 c-66 -24 -100 -48 -156 -111 -117 -130 -191 -355 -201
-610 -9 -236 49 -450 155 -565 l43 -46 -38 -77 c-21 -42 -80 -154 -132 -249
-52 -94 -94 -174 -94 -178 0 -3 -45 -85 -101 -182 -94 -165 -101 -180 -96
-221 11 -102 132 -153 210 -89 23 19 237 379 237 399 0 5 9 8 20 8 11 0 20 4
20 9 0 5 423 8 959 8 891 0 961 1 986 17 93 61 81 188 -22 232 -27 12 -189 14
-912 14 -576 0 -882 -3 -886 -10 -3 -6 1 -10 9 -10 8 0 22 -7 30 -16 9 -8 16
-11 16 -5 0 6 11 11 25 11 14 0 25 -6 25 -12 0 -9 2 -10 8 -2 4 7 43 12 100
12 51 1 97 4 102 7 6 4 10 3 10 -2 0 -4 62 -7 137 -6 96 1 140 -2 145 -10 6
-9 8 -9 8 0 0 8 46 11 160 11 114 0 160 -3 160 -11 0 -9 2 -9 8 -1 10 16 654
16 664 0 6 -8 8 -8 8 1 0 8 23 12 73 12 73 -1 148 -16 129 -28 -6 -4 -5 -11 4
-19 8 -7 14 -9 14 -5 0 4 5 1 10 -7 7 -11 5 -17 -8 -22 -16 -6 -16 -7 1 -7 22
-1 24 -51 2 -51 -8 0 -15 -8 -15 -19 0 -37 -21 -41 -211 -40 -101 1 -265 1
-364 0 -99 0 -197 0 -218 2 -21 1 -41 -1 -44 -5 -2 -5 -9 -5 -15 -2 -6 4 -32
6 -57 5 -118 -5 -301 -5 -301 -1 0 3 -16 5 -35 5 -19 0 -35 -4 -35 -8 0 -5 -5
-5 -11 -2 -6 4 -32 7 -57 7 -199 -2 -418 -1 -475 1 -37 1 -67 -2 -67 -6 0 -5
-4 -6 -8 -3 -5 3 -23 -4 -40 -14 -18 -11 -32 -17 -32 -15 0 3 11 27 24 53 32
63 40 92 26 92 -6 0 -13 -13 -16 -30 -4 -16 -13 -30 -20 -30 -7 0 -18 -19 -24
-42 -9 -31 -14 -38 -21 -27 -7 11 -9 11 -9 -3 0 -10 -6 -18 -12 -18 -9 0 -8
-4 2 -10 13 -8 12 -10 -2 -10 -10 0 -19 -7 -19 -15 -3 -27 -4 -30 -27 -53 -12
-12 -20 -27 -17 -32 3 -5 1 -11 -5 -15 -5 -3 -10 -15 -10 -25 0 -10 -9 -22
-20 -25 -11 -3 -21 -13 -21 -21 -1 -8 -3 -18 -4 -24 -1 -5 -3 -15 -4 -21 0 -5
-5 -8 -10 -5 -11 7 -23 -22 -15 -35 3 -5 -4 -9 -16 -9 -16 0 -21 -5 -18 -22 1
-13 -1 -24 -5 -25 -16 -6 -47 -44 -42 -52 6 -11 -69 -19 -92 -9 -16 6 -16 7 2
7 18 1 17 3 -5 14 -17 9 -27 10 -32 3 -4 -6 -8 -2 -8 11 0 12 -6 24 -12 26
-10 4 -10 6 0 6 16 1 16 38 0 44 -10 4 -10 6 0 6 7 1 12 14 12 31 0 23 4 30
20 30 19 0 25 14 21 48 -1 6 3 12 9 12 5 0 10 11 10 25 0 19 5 25 21 25 11 0
18 4 14 9 -3 5 -1 12 5 16 6 4 8 10 5 15 -3 5 -1 11 5 15 5 3 10 17 10 29 0
15 7 26 20 29 13 3 18 11 15 26 -2 12 0 21 6 21 5 0 9 14 9 30 0 17 5 30 13
30 17 0 38 48 23 54 -6 2 -3 5 7 5 11 1 17 9 17 26 0 14 6 25 13 25 8 0 20 12
28 27 8 16 25 38 38 50 13 13 19 23 13 23 -15 0 16 58 46 87 13 13 17 23 11
23 -10 0 -10 3 -1 12 7 7 12 22 12 35 0 14 6 23 15 23 8 0 15 7 15 15 0 8 6
15 13 15 8 0 7 4 -3 10 -11 7 -12 10 -2 10 30 0 -1 105 -31 105 -7 0 -11 11
-10 27 1 15 -1 27 -5 27 -28 -4 -41 4 -47 31 -4 16 -12 30 -18 30 -8 0 -7 3 2
9 11 7 9 13 -8 30 -12 12 -19 26 -16 31 3 4 0 10 -7 12 -6 2 -11 21 -10 41 1
22 -3 37 -10 37 -9 0 -9 3 -1 11 12 12 6 49 -9 49 -5 0 -6 5 -3 10 4 6 11 8
16 4 6 -3 5 3 -3 15 -7 12 -17 21 -22 21 -6 0 -1 7 10 15 12 9 14 14 5 15 -7
0 -11 6 -7 15 3 8 0 15 -7 15 -8 0 -8 3 -2 8 6 4 11 16 11 27 0 11 -5 23 -11
27 -7 5 -7 8 0 8 15 0 16 40 2 40 -8 0 -7 3 2 9 8 5 12 19 9 35 -3 14 -2 26 2
26 11 0 7 34 -5 42 -6 5 -4 8 5 8 9 0 16 9 17 20 1 11 -3 20 -9 20 -7 0 -7 4
0 13 5 6 10 31 10 55 1 33 7 50 27 70 24 23 25 27 9 32 -17 6 -17 7 0 13 13 5
17 15 14 32 -3 15 2 32 14 45 13 13 15 20 6 21 -7 0 -4 4 7 8 11 5 20 12 20
17 0 5 4 15 8 22 5 7 4 12 -3 12 -7 0 -6 5 2 14 7 8 16 12 20 10 4 -2 10 6 14
18 9 29 31 51 44 43 6 -4 10 -3 9 2 -4 21 2 33 16 33 8 0 15 7 15 15 0 8 3 14
8 14 21 -4 42 2 38 10 -7 10 17 21 45 21 10 0 19 6 19 13 0 7 3 8 8 2 11 -15
46 -12 54 5 6 13 7 13 7 -1 1 -16 27 -19 49 -5 7 4 12 2 12 -4 0 -6 10 -10 23
-9 30 3 57 -10 57 -27 0 -7 6 -11 14 -8 7 3 16 -2 19 -10 4 -9 16 -16 27 -16
13 0 20 -7 20 -20 0 -11 7 -23 15 -26 9 -4 15 -19 15 -38 0 -24 3 -27 10 -16
5 8 10 11 11 5 4 -42 12 -71 22 -77 9 -6 9 -8 0 -8 -7 0 -13 -9 -13 -20 0 -11
6 -20 13 -20 8 0 9 -3 1 -8 -6 -4 -11 -16 -11 -27 0 -11 5 -23 11 -27 8 -5 7
-8 -1 -8 -16 0 -17 -32 -1 -48 9 -9 9 -12 0 -12 -7 0 -12 -12 -11 -27 2 -44
-12 -127 -22 -133 -4 -3 -10 -15 -12 -25 -2 -11 -9 -31 -14 -45 -8 -18 -7 -27
1 -32 8 -6 8 -8 -1 -8 -8 0 -12 -13 -11 -35 1 -19 -2 -38 -5 -42 -4 -3 -7 2
-8 13 -1 14 -3 13 -8 -6 -4 -15 -3 -28 3 -32 7 -5 3 -8 -8 -8 -11 0 -16 -3
-13 -6 3 -4 2 -15 -4 -25 -7 -14 -6 -19 3 -19 9 0 10 -2 2 -8 -7 -4 -14 -18
-16 -32 -2 -14 -9 -24 -16 -23 -7 2 -12 -9 -12 -27 0 -17 -4 -30 -10 -30 -5 0
-6 -7 -3 -17 5 -12 3 -14 -8 -9 -8 4 -5 0 6 -8 18 -16 20 -15 37 18 31 60 116
327 139 436 31 148 31 303 -1 384 -29 76 -95 147 -162 176 -73 31 -178 36
-245 11z"/>
<path d="M860 2327 c0 -13 -3 -17 -8 -10 -5 8 -12 8 -25 -2 -18 -13 -18 -13 0
-18 16 -4 16 -5 1 -6 -10 0 -18 -8 -18 -16 0 -8 -3 -14 -7 -14 -20 3 -26 -2
-13 -11 13 -9 13 -10 0 -10 -20 0 -43 -47 -26 -54 7 -3 7 -5 -1 -5 -8 -1 -13
-14 -13 -31 0 -21 -5 -30 -16 -30 -12 0 -15 -7 -12 -25 3 -15 1 -25 -6 -25 -7
0 -11 -21 -11 -56 0 -31 -3 -58 -6 -60 -9 -5 -8 -314 1 -314 4 0 6 -9 3 -20
-3 -11 0 -27 7 -35 7 -8 8 -15 2 -15 -5 0 -2 -15 7 -34 10 -20 19 -29 23 -22
5 6 8 2 8 -11 0 -18 6 -23 25 -23 19 0 25 5 25 23 0 18 2 19 10 7 8 -13 10
-13 10 2 0 9 5 18 12 20 11 4 15 25 17 81 1 17 7 27 16 27 8 0 15 7 15 15 0 8
6 15 13 15 8 0 7 4 -3 10 -13 8 -13 10 2 10 14 0 17 9 16 45 -1 47 11 78 13
34 l1 -24 7 25 c4 15 3 28 -3 32 -7 5 -5 8 6 8 11 0 15 7 13 25 -1 14 1 25 5
25 4 0 11 24 14 52 4 29 12 56 18 59 6 4 11 18 11 33 0 14 2 26 6 26 4 0 7 9
8 20 1 11 -4 20 -10 20 -9 0 -9 2 0 8 18 12 27 93 11 104 -10 6 -10 8 0 8 6 0
12 11 12 25 0 14 -6 25 -12 25 -9 0 -10 3 -2 8 17 11 13 42 -5 42 -11 0 -12 3
-5 8 9 5 8 11 -2 20 -8 7 -14 9 -14 5 0 -4 -5 -1 -10 9 -7 11 -24 16 -60 16
-45 1 -50 -1 -50 -21z m101 -28 c20 -20 21 -29 16 -128 -6 -110 -30 -215 -89
-385 -50 -146 -102 -272 -113 -275 -5 -2 -19 23 -29 55 -30 90 -29 366 2 482
29 111 74 203 117 241 42 36 67 39 96 10z"/>
<path d="M1415 1861 c-24 -11 -56 -40 -80 -72 -22 -29 -88 -103 -147 -163 -70
-72 -104 -114 -98 -120 7 -7 15 -3 24 9 8 11 22 20 32 20 10 0 24 11 31 24 6
14 23 31 37 38 15 8 26 22 26 34 0 11 4 18 10 14 5 -3 18 3 29 14 13 13 16 21
8 25 -9 3 -9 5 1 5 6 1 12 9 13 19 0 14 2 14 9 -3 7 -16 9 -17 9 -3 1 9 9 22
19 27 10 6 12 11 4 11 -10 0 -10 3 0 14 8 9 15 10 19 4 4 -6 10 -1 14 11 3 11
12 21 18 21 7 0 6 4 -3 10 -13 8 -13 10 2 10 9 0 19 6 21 13 4 9 6 9 6 0 1 -9
8 -8 28 2 18 10 32 11 45 4 10 -5 22 -8 26 -6 4 3 12 -1 19 -8 7 -8 8 -15 3
-17 -6 -2 1 -15 15 -31 14 -15 21 -27 15 -27 -5 0 -10 -7 -10 -16 0 -8 4 -13
9 -10 11 7 21 -17 21 -50 0 -13 6 -24 13 -24 8 0 8 -3 -2 -9 -11 -7 -9 -14 12
-34 14 -15 28 -43 32 -66 6 -35 34 -79 35 -55 1 5 7 -6 15 -23 10 -25 20 -33
39 -33 17 0 24 -4 20 -14 -4 -10 2 -12 20 -9 14 3 23 9 20 14 -3 5 9 9 25 9
21 0 31 5 31 15 0 8 3 14 8 14 4 -1 14 -1 22 0 12 1 13 3 1 10 -11 7 -9 10 8
16 13 4 21 15 21 28 0 18 2 19 10 7 8 -13 10 -12 10 3 0 9 7 17 15 17 8 0 16
7 16 15 1 8 2 19 3 24 0 5 14 19 29 31 22 18 26 25 15 31 -14 9 -12 10 30 13
11 0 26 7 35 15 12 9 17 10 17 2 0 -7 4 -10 9 -7 5 4 12 0 14 -6 4 -10 8 -10
14 -2 6 9 11 8 21 -2 7 -7 12 -15 10 -16 -7 -10 13 -49 21 -43 7 3 11 -2 11
-14 0 -29 41 -95 50 -81 5 8 9 7 13 -4 4 -9 14 -16 22 -16 9 0 14 -4 10 -9 -3
-5 -1 -12 5 -16 5 -3 10 -1 10 4 0 6 10 1 21 -10 17 -17 23 -19 30 -8 7 11 9
11 9 1 0 -8 10 -13 28 -12 15 1 50 1 77 0 38 -1 45 -4 30 -10 -19 -8 -19 -9 2
-9 12 -1 24 5 26 12 3 7 6 5 6 -5 1 -14 6 -16 25 -8 13 5 27 6 30 2 11 -10 46
-9 46 2 0 5 6 1 14 -9 8 -11 12 -23 10 -26 -2 -4 6 -6 19 -5 17 1 23 -5 25
-26 2 -16 9 -28 15 -28 9 0 9 -2 0 -8 -6 -4 -14 -21 -16 -37 -3 -21 -9 -29
-20 -27 -8 1 -23 -8 -31 -20 -9 -12 -16 -17 -16 -11 0 13 -32 12 -41 -1 -4 -5
-13 -5 -20 0 -21 13 -39 13 -39 1 0 -7 -5 -4 -11 7 -9 15 -13 16 -20 5 -7 -12
-9 -11 -9 1 0 12 -2 12 -8 2 -7 -9 -15 -10 -35 -3 -18 7 -27 7 -31 -2 -2 -7
-5 -5 -5 4 -1 19 -51 24 -51 5 0 -6 -4 -6 -9 2 -4 8 -17 13 -27 12 -11 -1 -28
-1 -39 0 -20 1 -20 1 0 10 19 8 19 9 -3 9 -16 1 -21 5 -16 14 5 9 4 9 -6 0
-10 -9 -17 -7 -34 8 -11 11 -22 15 -24 10 -2 -6 -10 -7 -20 -1 -9 5 -25 11
-34 14 -10 3 -18 14 -18 24 0 15 -9 19 -50 21 -39 2 -50 -1 -50 -14 0 -8 -3
-14 -7 -14 -5 1 -15 1 -23 0 -13 -1 -13 -2 0 -11 13 -8 12 -10 -2 -10 -10 0
-18 -4 -18 -9 0 -9 -38 -24 -54 -22 -5 1 -6 -5 -3 -14 5 -12 -1 -15 -28 -15
-26 0 -35 -4 -36 -17 0 -10 -3 -13 -5 -6 -6 13 -35 6 -46 -11 -5 -8 -8 -7 -8
1 0 7 -6 10 -14 7 -8 -3 -17 0 -22 7 -5 9 -9 7 -15 -7 -6 -15 -8 -15 -8 -3 -1
12 -9 15 -31 13 -16 -2 -30 1 -30 6 0 6 -13 10 -30 10 -19 0 -28 4 -25 13 3 7
-13 20 -36 31 -23 10 -36 22 -30 25 11 7 -13 34 -34 39 -5 1 -10 5 -10 10 -2
24 -18 52 -31 52 -8 0 -14 7 -14 16 0 24 -47 88 -53 72 -4 -10 -6 -10 -6 0 -1
9 -6 10 -20 3 -10 -6 -21 -7 -25 -4 -3 3 -6 -5 -6 -19 0 -18 -5 -25 -17 -24
-10 0 -22 -8 -27 -20 -5 -11 -22 -26 -38 -33 -17 -8 -28 -20 -28 -32 0 -12 -7
-19 -19 -19 -10 0 -24 -7 -31 -15 -6 -8 -15 -14 -18 -13 -20 2 -25 -3 -12 -12
12 -8 11 -10 -7 -10 -13 0 -23 -5 -23 -10 0 -6 -3 -9 -7 -8 -16 3 -43 -15 -43
-28 0 -9 -11 -14 -30 -14 -16 0 -30 -4 -30 -9 0 -4 -11 -7 -25 -6 -15 2 -25
-2 -25 -9 0 -8 -10 -11 -30 -8 -23 3 -30 0 -30 -12 0 -9 -7 -16 -16 -16 -17 0
-45 -24 -43 -37 1 -4 1 -17 -1 -28 -1 -20 -1 -20 -10 0 -9 20 -9 20 -10 0 -2
-11 -2 -26 -1 -32 1 -7 -5 -13 -14 -13 -11 0 -15 -10 -15 -35 0 -26 -3 -33
-15 -29 -11 4 -15 0 -15 -16 0 -12 -7 -28 -15 -36 -18 -19 -19 -34 -2 -34 9 0
9 -2 -1 -9 -8 -4 -12 -19 -10 -32 3 -21 7 -17 29 26 15 28 50 95 79 150 l52
100 67 21 c126 39 226 102 354 224 80 75 86 79 92 58 14 -43 76 -138 123 -185
103 -103 238 -127 363 -66 35 18 86 53 112 78 l48 46 31 -26 c77 -65 203 -107
380 -126 132 -14 177 -8 220 30 24 22 32 37 35 77 10 104 -50 153 -187 154
-134 1 -257 37 -307 92 -11 12 -26 41 -32 64 -16 58 -71 104 -126 104 -41 0
-94 -29 -110 -60 -39 -76 -171 -210 -206 -210 -14 0 -62 58 -89 107 -31 55
-80 191 -80 220 0 25 -35 79 -62 96 -40 26 -80 28 -123 8z"/>
<path d="M275 906 c-50 -22 -85 -71 -85 -119 0 -72 50 -126 118 -127 32 0 33
1 16 17 -9 10 -22 18 -28 19 -6 0 -19 2 -28 2 -12 1 -18 10 -18 27 0 16 -6 25
-15 25 -22 0 -19 47 3 53 16 4 16 5 0 6 -20 1 -21 2 -11 27 6 16 7 16 14 -2 7
-17 8 -17 8 -1 1 9 7 17 14 17 9 0 9 2 -1 8 -9 6 -6 12 13 20 19 9 25 9 25 -1
0 -9 2 -9 8 1 6 8 27 11 61 9 29 -1 55 1 57 5 3 4 14 8 25 8 10 0 19 5 19 10
0 15 -160 12 -195 -4z"/>
<path d="M712 830 c-10 -17 -10 -20 3 -20 8 0 19 9 25 20 8 15 8 20 -2 20 -7
0 -19 -9 -26 -20z"/>
</g>
</svg>
